<svg width="22" height="19" viewBox="0 0 22 19" fill="none" xmlns="http://www.w3.org/2000/svg">
<path d="M8.49962 12C8.49962 12 9.81213 13.5 11.9996 13.5C14.1871 13.5 15.4996 12 15.4996 12M14.7496 7H14.7596M9.24962 7H9.25962M11.9996 18C16.694 18 20.4996 14.1944 20.4996 9.5C20.4996 4.80558 16.694 1 11.9996 1C7.3052 1 3.49962 4.80558 3.49962 9.5C3.49962 10.45 3.65547 11.3636 3.943 12.2166C4.05119 12.5376 4.10529 12.6981 4.11505 12.8214C4.12469 12.9432 4.1174 13.0286 4.08728 13.1469C4.05677 13.2668 3.98942 13.3915 3.85472 13.6408L2.21906 16.6684C1.98575 17.1002 1.86909 17.3161 1.8952 17.4828C1.91794 17.6279 2.00337 17.7557 2.1288 17.8322C2.2728 17.9201 2.51692 17.8948 3.00517 17.8444L8.12619 17.315C8.28127 17.299 8.35881 17.291 8.42949 17.2937C8.499 17.2963 8.54807 17.3029 8.61586 17.3185C8.68478 17.3344 8.77145 17.3678 8.94478 17.4345C9.89283 17.7998 10.9228 18 11.9996 18ZM15.2496 7C15.2496 7.27614 15.0258 7.5 14.7496 7.5C14.4735 7.5 14.2496 7.27614 14.2496 7C14.2496 6.72386 14.4735 6.5 14.7496 6.5C15.0258 6.5 15.2496 6.72386 15.2496 7ZM9.74962 7C9.74962 7.27614 9.52577 7.5 9.24962 7.5C8.97348 7.5 8.74962 7.27614 8.74962 7C8.74962 6.72386 8.97348 6.5 9.24962 6.5C9.52577 6.5 9.74962 6.72386 9.74962 7Z" stroke="#344054" stroke-width="2" stroke-linecap="round" stroke-linejoin="round"/>
</svg>
