<svg width="21" height="20" viewBox="0 0 21 20" fill="none" xmlns="http://www.w3.org/2000/svg">
<path d="M7.5 7V4C7.5 2.34315 6.15685 1 4.5 1C2.84315 1 1.5 2.34315 1.5 4C1.5 5.65685 2.84315 7 4.5 7H7.5ZM7.5 7V13M7.5 7H13.5M7.5 13V16C7.5 17.6569 6.15685 19 4.5 19C2.84315 19 1.5 17.6569 1.5 16C1.5 14.3431 2.84315 13 4.5 13H7.5ZM7.5 13H13.5M13.5 13H16.5C18.1569 13 19.5 14.3431 19.5 16C19.5 17.6569 18.1569 19 16.5 19C14.8431 19 13.5 17.6569 13.5 16V13ZM13.5 13V7M13.5 7V4C13.5 2.34315 14.8431 1 16.5 1C18.1569 1 19.5 2.34315 19.5 4C19.5 5.65685 18.1569 7 16.5 7H13.5Z" stroke="#344054" stroke-width="2" stroke-linecap="round" stroke-linejoin="round"/>
</svg>
