<svg width="22" height="21" viewBox="0 0 22 21" fill="none" xmlns="http://www.w3.org/2000/svg">
<path d="M9.5 2H6.3C4.61984 2 3.77976 2 3.13803 2.32698C2.57354 2.6146 2.1146 3.07354 1.82698 3.63803C1.5 4.27976 1.5 5.11984 1.5 6.8V15.2C1.5 16.8802 1.5 17.7202 1.82698 18.362C2.1146 18.9265 2.57354 19.3854 3.13803 19.673C3.77976 20 4.61984 20 6.3 20H14.7C16.3802 20 17.2202 20 17.862 19.673C18.4265 19.3854 18.8854 18.9265 19.173 18.362C19.5 17.7202 19.5 16.8802 19.5 15.2V12M10.5 7H14.5V11M14 2.5V1M17.9393 3.56066L19 2.5M19.0103 7.5H20.5103M1.5 12.3471C2.15194 12.4478 2.81987 12.5 3.5 12.5C7.88636 12.5 11.7653 10.3276 14.1197 7" stroke="#344054" stroke-width="2" stroke-linecap="round" stroke-linejoin="round"/>
</svg>
