<svg width="22" height="19" viewBox="0 0 22 19" fill="none" xmlns="http://www.w3.org/2000/svg">
<path d="M20.4996 9.5C20.4996 14.1944 16.694 18 11.9996 18C10.9228 18 9.89283 17.7998 8.94478 17.4345C8.77145 17.3678 8.68478 17.3344 8.61586 17.3185C8.54807 17.3029 8.499 17.2963 8.42949 17.2937C8.35881 17.291 8.28127 17.299 8.12619 17.315L3.00517 17.8444C2.51692 17.8948 2.2728 17.9201 2.1288 17.8322C2.00337 17.7557 1.91794 17.6279 1.8952 17.4828C1.86909 17.3161 1.98575 17.1002 2.21906 16.6684L3.85472 13.6408C3.98942 13.3915 4.05677 13.2668 4.08728 13.1469C4.1174 13.0286 4.12469 12.9432 4.11505 12.8214C4.10529 12.6981 4.05119 12.5376 3.943 12.2166C3.65547 11.3636 3.49962 10.45 3.49962 9.5C3.49962 4.80558 7.3052 1 11.9996 1C16.694 1 20.4996 4.80558 20.4996 9.5Z" stroke="#344054" stroke-width="2" stroke-linecap="round" stroke-linejoin="round"/>
<path fill-rule="evenodd" clip-rule="evenodd" d="M11.9965 6.94925C11.0968 5.9104 9.59651 5.63095 8.46924 6.58223C7.34196 7.5335 7.18326 9.12399 8.06851 10.2491C8.61696 10.9461 9.99351 12.2191 10.9616 13.087C11.3172 13.4057 11.495 13.5651 11.7084 13.6293C11.8914 13.6844 12.1017 13.6844 12.2847 13.6293C12.4981 13.5651 12.6759 13.4057 13.0315 13.087C13.9996 12.2191 15.3761 10.9461 15.9246 10.2491C16.8098 9.12399 16.6705 7.5235 15.5238 6.58223C14.3772 5.64096 12.8963 5.9104 11.9965 6.94925Z" stroke="#344054" stroke-width="2" stroke-linecap="round" stroke-linejoin="round"/>
</svg>
